<?xml version="1.0" standalone="no"?>
<!DOCTYPE svg PUBLIC "-//W3C//DTD SVG 20010904//EN"
 "http://www.w3.org/TR/2001/REC-SVG-20010904/DTD/svg10.dtd">
<svg version="1.0" xmlns="http://www.w3.org/2000/svg"
 width="1280.000000pt" height="1280.000000pt" viewBox="0 0 1280.000000 1280.000000"
 preserveAspectRatio="xMidYMid meet">

<g transform="translate(0.000000,1280.000000) scale(0.100000,-0.100000)"
fill="#000000" stroke="none">
<path d="M2731 9923 c-53 -221 -125 -409 -206 -534 -82 -127 -264 -293 -412
-376 l-58 -33 133 0 c84 0 131 -4 127 -10 -3 -5 -53 -41 -111 -80 l-105 -70
43 -1 c24 -1 49 -1 56 0 16 2 15 -9 -1 -23 -57 -46 -174 -130 -231 -164 l-70
-42 212 0 c117 0 212 -4 212 -8 0 -15 -178 -155 -272 -214 l-91 -58 124 0 124
-1 -64 -61 c-82 -77 -233 -189 -338 -252 -46 -26 -83 -49 -83 -49 0 -1 211 -1
470 1 l470 2 0 -1985 0 -1985 75 0 75 0 2 1983 3 1982 385 0 385 0 3 -1982 2
-1983 50 0 50 0 2 1983 3 1982 48 -1 c26 0 47 1 47 2 0 2 -18 13 -40 25 -22
13 -40 25 -40 28 0 3 100 5 222 3 123 -2 252 -2 288 0 l65 3 -60 34 c-33 19
-89 55 -125 80 l-65 46 175 5 174 5 -79 46 c-85 49 -231 154 -254 182 -12 16
-7 17 75 17 l89 0 -50 28 c-63 35 -140 87 -183 123 l-32 28 151 3 151 3 -98
60 c-125 77 -272 216 -354 336 -57 83 -150 261 -150 288 0 27 -18 6 -40 -46
-50 -124 -193 -345 -241 -376 -13 -8 -33 2 -93 43 -42 29 -79 57 -82 61 -3 5
55 9 128 9 l133 0 -53 29 c-142 79 -329 247 -412 370 -79 118 -148 293 -204
514 l-32 128 -23 -98z m569 -1342 c0 -5 -13 -19 -29 -30 l-29 -21 -26 21 c-39
30 -32 39 29 39 30 0 55 -4 55 -9z"/>
<path d="M3283 9484 c-3 -8 -1 -20 6 -27 13 -13 15 -47 3 -47 -5 0 -17 9 -27
20 -22 24 -48 26 -43 3 2 -9 18 -21 36 -25 17 -5 32 -13 32 -18 0 -9 -8 -12
-54 -14 -11 -1 -21 -6 -23 -13 -6 -16 15 -27 30 -15 18 15 57 24 57 15 0 -5
-9 -19 -20 -31 -24 -25 -26 -52 -5 -52 8 0 15 7 15 15 0 8 5 26 12 40 14 31
28 16 28 -32 0 -23 5 -33 15 -33 17 0 21 35 5 45 -12 7 -14 45 -2 45 5 0 18
-9 30 -20 12 -11 26 -20 32 -20 14 0 9 35 -5 35 -22 2 -55 17 -55 26 0 9 11
11 55 13 11 1 21 9 23 19 4 18 -17 23 -33 8 -6 -5 -21 -12 -33 -16 -22 -6 -23
-5 -11 17 6 12 18 26 25 31 14 8 8 37 -7 37 -5 0 -17 -18 -25 -41 -19 -46 -34
-37 -34 19 0 33 -16 44 -27 16z"/>
<path d="M8370 9456 c0 -2 7 -20 15 -40 l16 -37 -23 12 c-13 7 -26 17 -30 23
-5 8 -11 7 -19 -1 -10 -10 -6 -15 19 -24 35 -12 43 -28 15 -30 -41 -3 -47 -5
-51 -18 -5 -14 18 -12 63 5 16 6 16 5 1 -24 -18 -35 -19 -42 -8 -42 4 0 13 15
20 33 10 26 14 29 22 17 5 -8 10 -25 10 -37 0 -13 4 -23 8 -23 18 0 20 12 6
38 -17 33 -11 39 20 18 31 -20 36 -20 36 -2 0 8 -11 17 -25 20 -44 11 -26 33
23 27 6 -1 12 5 12 14 0 18 -13 19 -42 4 -28 -15 -34 -4 -14 25 18 29 20 36 7
36 -5 0 -14 -13 -21 -30 -15 -36 -30 -30 -30 11 0 19 -5 29 -15 29 -8 0 -15
-2 -15 -4z"/>
<path d="M9410 9441 c0 -11 -12 -51 -26 -90 -26 -70 -65 -121 -134 -174 l-35
-27 35 0 35 -1 -29 -23 c-19 -16 -24 -25 -15 -28 8 -3 -2 -15 -26 -31 l-40
-27 -17 33 c-29 53 -59 137 -82 230 l-23 87 -27 -102 c-41 -155 -103 -275
-184 -357 -37 -37 -96 -86 -131 -109 l-63 -42 72 0 c84 0 83 -6 -3 -62 l-52
-33 34 -5 33 -5 -48 -35 c-26 -19 -68 -47 -93 -62 l-46 -28 123 0 c67 0 122
-4 122 -9 0 -11 -108 -95 -162 -126 l-43 -25 75 0 75 -1 -50 -45 c-84 -77
-122 -99 -148 -86 -21 10 -20 11 11 11 17 1 32 6 32 11 0 6 -4 10 -9 10 -5 0
-32 21 -60 46 -54 49 -90 107 -112 184 -17 63 -26 68 -34 22 -7 -45 -60 -162
-72 -162 -11 1 -43 26 -43 34 0 3 8 6 18 6 12 0 7 8 -18 27 -81 63 -126 134
-155 242 l-12 46 -12 -45 c-7 -25 -20 -65 -28 -89 -18 -48 -95 -138 -138 -161
l-27 -15 23 -5 c23 -6 22 -7 -16 -33 l-40 -27 38 0 c46 0 42 -11 -21 -51 l-46
-29 69 0 69 0 -34 -30 c-19 -16 -43 -32 -52 -35 -27 -9 -22 -23 7 -20 14 2 25
0 25 -4 0 -11 -49 -54 -95 -85 l-40 -26 128 0 127 0 0 -2050 0 -2050 60 0 60
0 0 1985 0 1985 70 0 70 0 0 -1985 0 -1985 100 0 100 0 0 1985 0 1985 105 0
c58 0 105 3 105 8 0 4 -15 15 -32 25 -18 10 -51 33 -73 52 l-40 34 39 1 39 0
-46 31 c-26 17 -49 35 -53 40 -3 5 22 9 56 9 39 0 59 4 55 10 -4 7 37 10 127
8 l133 -3 0 -2093 0 -2092 143 0 142 0 0 2095 0 2096 103 -3 102 -3 0 -2093 0
-2092 38 0 37 0 0 2035 0 2035 115 0 115 0 0 -2035 0 -2035 40 0 40 0 0 2035
0 2035 170 0 170 0 0 -2035 0 -2035 50 0 50 0 0 2035 0 2036 103 -3 102 -3 3
-2032 2 -2033 90 0 90 0 0 2035 0 2035 222 0 221 0 -104 53 c-57 28 -131 72
-164 97 l-60 45 94 3 95 3 -55 36 c-58 39 -201 181 -194 193 3 4 56 6 120 4
63 -1 115 1 115 5 0 4 -12 14 -28 23 -37 22 -122 98 -122 109 0 5 48 9 107 9
l107 0 -46 29 c-24 16 -74 56 -109 89 l-64 61 55 1 c55 1 55 1 30 18 -142 99
-242 228 -311 405 -22 57 -29 68 -35 52 -51 -145 -127 -276 -202 -349 l-40
-38 -34 71 -35 71 -36 -74 c-43 -86 -109 -163 -181 -212 l-51 -34 79 0 79 0
-19 -22 c-10 -11 -45 -41 -78 -65 l-58 -43 56 0 c31 0 56 -4 56 -9 0 -11 -67
-71 -80 -71 -29 0 -155 199 -180 285 -8 29 -20 45 -39 53 -15 7 -47 29 -71 50
l-44 37 33 5 34 5 -52 33 c-28 18 -51 37 -51 42 0 5 26 10 57 12 l57 3 -43 29
c-29 18 -40 31 -32 36 8 5 3 13 -16 26 l-28 19 32 5 32 5 -57 45 c-61 49 -115
138 -127 212 -7 41 -25 62 -25 29z m-130 -417 c0 -10 -44 -43 -57 -44 -11 0
-33 30 -33 44 0 3 20 6 45 6 25 0 45 -3 45 -6z m440 -206 c-1 -25 -57 -145
-91 -194 -41 -60 -103 -128 -141 -155 l-28 -20 0 50 0 51 48 0 47 0 -47 30
-48 30 0 110 0 110 130 0 c97 0 130 -3 130 -12z m-338 -63 c6 -32 -8 -31 -47
0 l-30 25 36 0 c31 0 37 -4 41 -25z m3 -75 c3 -5 1 -10 -4 -10 -6 0 -11 5 -11
10 0 6 2 10 4 10 3 0 8 -4 11 -10z m-4 -137 c0 -5 2 -18 3 -31 4 -35 -8 -34
-44 3 l-34 35 37 0 c20 0 37 -3 38 -7z m146 -168 c-27 -25 -53 -45 -58 -45 -5
0 -9 14 -9 30 0 26 4 30 28 30 l27 1 -25 14 c-24 14 -23 14 30 14 l55 0 -48
-44z m433 25 c-31 -24 -33 -24 -55 0 -18 20 -17 20 31 20 l49 0 -25 -20z
m-1690 -44 c0 -3 -4 -8 -10 -11 -5 -3 -10 -1 -10 4 0 6 5 11 10 11 6 0 10 -2
10 -4z m1840 -55 c0 -10 -10 -26 -22 -34 l-23 -16 23 0 c20 -1 22 -6 22 -54 0
-51 -1 -52 -42 -75 -24 -12 -50 -22 -58 -22 -16 0 -80 52 -80 65 0 4 36 5 80
3 44 -2 80 -1 79 2 0 3 -34 31 -75 63 -41 32 -74 62 -74 67 0 9 42 15 123 18
40 2 47 -1 47 -17z m-593 -8 c-16 -16 -18 -16 -34 0 -16 16 -15 17 17 17 32 0
33 -1 17 -17z m723 -53 c0 -5 -7 -10 -15 -10 -8 0 -15 5 -15 10 0 6 7 10 15
10 8 0 15 -4 15 -10z m-710 -82 c0 -3 -15 -19 -32 -34 -33 -27 -33 -27 -36 -5
-2 12 -1 28 1 35 5 12 67 17 67 4z m-1330 -97 c0 -8 -43 -41 -55 -41 -3 0 -5
11 -5 25 0 21 5 25 30 25 17 0 30 -4 30 -9z"/>
<path d="M4365 9366 c-25 -18 -16 -60 14 -64 31 -5 54 23 41 48 -13 24 -35 31
-55 16z"/>
<path d="M6835 9350 c-3 -5 -1 -18 5 -29 18 -34 12 -45 -15 -27 -26 17 -45 21
-45 8 0 -4 15 -13 33 -20 26 -10 29 -14 17 -22 -8 -5 -25 -10 -37 -10 -24 0
-31 -14 -12 -26 6 -3 16 -1 22 5 6 6 19 11 30 11 17 0 17 -1 -3 -29 -12 -18
-16 -32 -10 -36 5 -3 14 5 19 18 12 32 31 43 32 20 3 -41 5 -46 17 -50 15 -6
15 7 2 43 -13 34 -7 40 22 20 24 -17 38 -20 38 -8 0 4 -14 13 -31 21 -23 10
-28 16 -18 22 8 5 24 9 37 9 13 0 22 6 22 15 0 17 -25 20 -35 5 -8 -13 -35
-13 -35 -1 0 5 7 17 16 26 12 12 14 19 5 28 -8 8 -14 2 -22 -21 -14 -40 -29
-41 -29 -3 0 31 -14 49 -25 31z"/>
<path d="M5637 9314 c-11 -12 -8 -36 7 -53 8 -9 18 -33 21 -55 l8 -38 -42 23
c-22 13 -41 29 -41 35 0 14 -28 26 -41 18 -5 -3 -9 -16 -9 -30 0 -18 5 -24 23
-24 12 0 40 -11 62 -24 l39 -24 -42 -12 c-24 -6 -51 -8 -61 -5 -22 7 -46 -19
-37 -40 7 -19 35 -19 56 0 10 9 34 19 55 22 l37 6 -18 -29 c-9 -16 -28 -39
-41 -52 -27 -26 -28 -35 -9 -51 20 -17 46 -3 46 24 0 13 10 40 22 61 21 36 22
36 31 13 5 -13 9 -44 10 -69 2 -38 5 -45 23 -48 27 -4 39 25 21 47 -14 15 -37
75 -37 93 0 14 57 -19 85 -49 23 -26 26 -26 41 -11 21 21 11 48 -17 48 -12 0
-37 10 -56 21 -31 19 -33 23 -18 32 10 5 39 10 64 11 40 1 46 4 49 24 4 28
-22 40 -46 20 -17 -14 -92 -40 -92 -32 0 16 42 83 55 87 20 8 19 43 -1 51 -21
8 -46 -12 -40 -33 3 -9 -6 -34 -19 -55 -28 -46 -33 -40 -44 46 -6 50 -24 72
-44 52z"/>
<path d="M10034 9296 c-3 -8 1 -23 10 -31 9 -9 16 -26 16 -37 0 -19 -1 -20
-22 -4 -36 26 -49 29 -60 18 -8 -8 -7 -13 3 -16 69 -25 72 -27 60 -39 -6 -6
-24 -12 -39 -13 -32 -1 -46 -34 -14 -34 11 0 22 4 24 9 2 4 14 12 26 16 22 6
23 5 17 -16 -5 -13 -15 -29 -23 -35 -17 -12 -8 -34 14 -34 8 0 14 9 14 21 0
11 5 30 11 41 9 17 13 18 20 7 5 -8 9 -26 9 -41 0 -31 10 -40 29 -28 14 8 13
13 -14 60 -8 13 -13 26 -11 28 6 5 56 -21 56 -30 0 -14 27 -9 33 6 7 18 -1 26
-27 26 -12 0 -28 5 -36 10 -13 9 -13 11 0 20 8 5 25 10 37 10 25 0 40 17 25
32 -6 6 -21 2 -43 -11 -48 -29 -54 -26 -30 15 12 19 21 42 21 50 0 20 -19 18
-26 -3 -21 -65 -27 -75 -36 -59 -5 9 -10 28 -11 43 -3 30 -24 43 -33 19z"/>
<path d="M7768 9279 c-35 -20 -11 -75 29 -67 22 4 29 43 13 64 -14 16 -19 17
-42 3z"/>
<path d="M4821 9146 c-17 -20 -2 -48 23 -44 24 3 34 37 14 49 -18 12 -24 11
-37 -5z"/>
<path d="M4185 9024 c8 -30 -4 -54 -26 -54 -10 0 -19 -4 -19 -9 0 -5 9 -7 20
-4 22 6 26 -7 8 -25 -9 -9 -9 -12 0 -12 6 0 15 8 21 18 9 15 11 15 21 -8 l10
-25 -5 28 c-3 15 -1 27 5 27 5 0 10 -4 10 -10 0 -5 8 -10 18 -10 14 0 12 4 -8
20 l-25 20 23 0 c12 0 22 5 22 11 0 6 -9 8 -20 4 -22 -7 -26 5 -8 23 8 8 8 12
1 12 -6 0 -14 -8 -18 -17 -6 -16 -8 -15 -21 7 -12 21 -14 21 -9 4z"/>
<path d="M9844 9016 c-9 -24 4 -48 23 -44 12 2 18 12 18 28 0 29 -32 41 -41
16z"/>
<path d="M4145 9000 c3 -5 14 -10 23 -10 15 0 15 2 2 10 -20 13 -33 13 -25 0z"/>
<path d="M8330 8968 l-1 -33 -20 24 c-11 13 -22 21 -26 17 -3 -3 2 -15 12 -26
18 -20 17 -20 -8 -20 -38 0 -33 -18 6 -22 28 -3 33 -7 38 -38 7 -38 13 -31 9
10 l-2 25 26 -24 c29 -27 36 -18 9 11 -15 17 -15 18 10 18 15 0 27 5 27 10 0
6 -12 10 -27 10 -25 0 -26 0 -8 20 10 11 15 23 12 26 -4 4 -16 -4 -27 -17
l-21 -24 4 28 c2 15 0 30 -4 33 -5 3 -9 -10 -9 -28z"/>
<path d="M7455 8931 c-3 -6 -2 -19 3 -28 7 -15 8 -43 3 -70 -1 -7 -32 27 -53
59 -9 13 -19 18 -26 14 -19 -12 -14 -36 11 -45 12 -5 31 -19 42 -31 l20 -23
-57 7 c-54 6 -58 5 -58 -14 0 -19 4 -20 50 -14 30 4 50 3 50 -3 0 -12 -29 -38
-53 -46 -20 -7 -20 -42 0 -42 6 0 22 15 35 34 32 48 49 51 44 9 -3 -18 -8 -41
-11 -50 -9 -22 21 -36 38 -19 8 8 8 14 -1 23 -14 14 -17 78 -4 78 12 0 42 -34
42 -47 0 -18 25 -32 39 -23 17 10 7 40 -12 40 -7 0 -24 12 -38 26 l-24 27 58
-7 c53 -6 57 -5 57 14 0 19 -4 20 -57 14 l-58 -7 20 23 c11 12 30 26 43 31 14
6 22 16 20 26 -6 30 -26 24 -54 -16 -16 -22 -33 -41 -38 -41 -7 0 -6 13 6 85
3 21 -25 34 -37 16z"/>
<path d="M5305 8867 c-59 -170 -169 -319 -313 -427 l-34 -25 86 3 c54 2 86 0
86 -7 0 -9 -44 -49 -120 -110 l-25 -20 49 -1 50 0 -35 -36 c-18 -20 -61 -57
-94 -82 -33 -25 -64 -49 -70 -54 -6 -6 29 -9 90 -8 55 2 103 2 107 1 10 -1
-69 -72 -117 -104 l-40 -27 183 0 182 0 0 -1995 0 -1995 40 0 c22 0 39 3 39 8
-1 4 -1 901 0 1995 l1 1987 177 0 176 0 -44 31 c-49 35 -109 90 -109 99 0 4
45 5 100 3 55 -2 100 0 100 4 0 5 -15 17 -34 27 -19 10 -65 47 -103 82 l-68
63 55 1 c47 1 52 3 36 13 -39 25 -136 108 -136 117 0 6 37 10 86 10 l85 0 -63
48 c-94 72 -172 171 -234 297 -30 60 -54 117 -54 127 0 37 -17 24 -35 -25z"/>
<path d="M8292 8888 c-7 -7 -12 -16 -12 -20 0 -15 15 -8 28 12 13 22 3 27 -16
8z"/>
<path d="M7030 8815 c-11 -13 -11 -19 3 -32 21 -21 49 -9 45 19 -4 28 -30 35
-48 13z"/>
<path d="M6481 8801 c-13 -24 8 -55 34 -50 28 6 42 34 26 53 -18 22 -48 20
-60 -3z"/>
<path d="M4660 8758 c0 -34 -15 -52 -39 -45 -12 3 -24 1 -27 -4 -3 -5 10 -9
28 -9 l33 -1 -24 -20 c-13 -11 -21 -22 -17 -26 3 -3 15 2 26 12 20 18 20 17
20 -8 0 -15 5 -27 10 -27 6 0 10 12 10 27 0 25 1 25 18 10 29 -26 38 -20 12 8
l-23 25 26 0 c15 0 27 4 27 9 0 5 -9 7 -21 4 -24 -7 -39 10 -39 45 0 12 -4 22
-10 22 -5 0 -10 -10 -10 -22z"/>
<path d="M4620 8745 c7 -8 17 -15 22 -15 6 0 5 7 -2 15 -7 8 -17 15 -22 15 -6
0 -5 -7 2 -15z"/>
<path d="M4696 8745 c-3 -8 -2 -15 3 -15 5 0 14 7 21 15 10 12 10 15 -3 15 -8
0 -17 -7 -21 -15z"/>
<path d="M6912 8568 c-18 -18 -15 -45 8 -66 11 -10 29 -49 39 -85 l18 -67 -59
34 c-33 18 -65 44 -72 57 -16 32 -61 38 -76 9 -15 -29 -4 -59 26 -66 14 -4 28
-4 31 -1 6 7 88 -37 112 -59 12 -11 9 -14 -15 -19 -16 -4 -42 -11 -58 -16 -16
-5 -46 -6 -66 -3 -32 5 -40 3 -50 -15 -27 -51 35 -96 71 -52 17 21 124 60 134
49 10 -9 -56 -117 -75 -123 -25 -8 -36 -50 -20 -70 29 -34 84 -8 79 37 -2 22
49 138 61 138 11 0 34 -104 35 -155 l0 -50 35 0 c31 0 35 3 38 29 2 18 -4 36
-16 50 -11 11 -25 41 -32 66 -6 25 -13 53 -16 63 -8 27 108 -44 124 -77 22
-44 82 -30 82 20 0 28 -20 45 -51 42 -23 -2 -129 50 -129 63 0 11 120 40 140
34 34 -11 60 4 60 34 0 50 -46 69 -73 31 -12 -18 -147 -67 -147 -54 0 17 66
115 86 129 29 19 30 61 2 79 -27 17 -52 -5 -58 -50 -6 -38 -58 -140 -67 -130
-13 12 -33 122 -28 147 4 18 2 36 -5 44 -15 18 -52 19 -68 3z"/>
<path d="M6150 8492 c0 -5 7 -23 16 -41 21 -42 11 -50 -27 -22 -21 16 -34 20
-41 13 -16 -16 -2 -29 37 -36 54 -10 39 -36 -21 -36 -17 0 -24 -6 -24 -20 0
-23 22 -26 39 -6 11 14 51 29 51 19 0 -9 -23 -48 -33 -54 -14 -9 0 -42 15 -37
7 3 15 19 19 37 11 56 27 59 34 7 5 -28 12 -46 21 -46 21 0 27 20 11 38 -8 9
-18 28 -22 40 -6 22 -5 23 17 12 12 -7 31 -19 40 -28 16 -13 18 -13 24 1 8 22
-3 37 -29 37 -12 0 -29 4 -37 10 -11 7 -9 11 14 19 15 6 31 9 36 6 4 -3 13 2
20 10 19 22 -13 31 -42 11 -41 -29 -51 -20 -27 24 12 22 20 43 16 46 -10 11
-39 -5 -34 -19 3 -7 -1 -24 -8 -38 l-13 -24 -11 28 c-6 16 -11 35 -11 43 0 8
-7 14 -15 14 -8 0 -15 -4 -15 -8z"/>
<path d="M4490 8375 c-17 -20 -5 -45 20 -45 11 0 23 7 26 15 6 15 -11 45 -26
45 -4 0 -13 -7 -20 -15z"/>
<path d="M1990 5920 l0 -1940 90 0 90 0 0 1940 0 1940 -90 0 -90 0 0 -1940z"/>
<path d="M2270 5920 l0 -1940 155 0 155 0 0 1940 0 1940 -155 0 -155 0 0
-1940z"/>
<path d="M3000 5920 l0 -1940 140 0 140 0 0 1940 0 1940 -140 0 -140 0 0
-1940z"/>
<path d="M3790 5920 l0 -1940 90 0 90 0 0 1940 0 1940 -90 0 -90 0 0 -1940z"/>
<path d="M4100 5920 l0 -1940 40 0 40 0 0 1940 0 1940 -40 0 -40 0 0 -1940z"/>
<path d="M4390 5920 l0 -1940 140 0 140 0 0 1940 0 1940 -140 0 -140 0 0
-1940z"/>
<path d="M4800 5920 l0 -1940 140 0 140 0 0 1940 0 1940 -140 0 -140 0 0
-1940z"/>
<path d="M5470 5920 l0 -1940 155 0 155 0 0 1940 0 1940 -155 0 -155 0 0
-1940z"/>
<path d="M5880 5920 l0 -1940 105 0 105 0 0 1940 0 1940 -105 0 -105 0 0
-1940z"/>
<path d="M6190 5920 l0 -1940 40 0 40 0 0 1940 0 1940 -40 0 -40 0 0 -1940z"/>
<path d="M6400 5920 l0 -1940 35 0 35 0 0 1940 0 1940 -35 0 -35 0 0 -1940z"/>
<path d="M6580 5920 l0 -1940 50 0 50 0 0 1940 0 1940 -50 0 -50 0 0 -1940z"/>
<path d="M6890 5920 l0 -1940 140 0 140 0 0 1940 0 1940 -140 0 -140 0 0
-1940z"/>
<path d="M7300 5921 l0 -1941 40 0 40 0 -3 1938 -2 1937 -37 3 -38 3 0 -1940z"/>
<path d="M7580 5920 l0 -1940 68 0 67 0 0 1940 0 1940 -67 0 -68 0 0 -1940z"/>
<path d="M7830 5920 l0 -1940 35 0 35 0 0 1940 0 1940 -35 0 -35 0 0 -1940z"/>
<path d="M8690 5920 l0 -1940 40 0 40 0 0 1940 0 1940 -40 0 -40 0 0 -1940z"/>
<path d="M10780 5205 l0 -2655 50 0 50 0 0 2655 0 2655 -50 0 -50 0 0 -2655z"/>
<path d="M10980 5205 l0 -2655 40 0 40 0 0 2655 0 2655 -40 0 -40 0 0 -2655z"/>
<path d="M1827 7802 l-47 -3 2 -2622 3 -2622 50 0 50 0 3 2619 c1 1441 -1
2622 -5 2625 -5 4 -29 5 -56 3z"/>
<path d="M1600 5175 l0 -2625 40 0 40 0 0 2625 0 2625 -40 0 -40 0 0 -2625z"/>
<path d="M3046 3683 c27 -30 138 -230 139 -253 1 -9 27 -83 43 -120 8 -19 13
-35 11 -36 -2 0 2 -8 10 -17 7 -10 11 -17 7 -17 -3 0 3 -23 14 -51 l19 -52
-27 -20 c-46 -34 -182 -178 -182 -193 0 -8 -3 -14 -7 -14 -9 0 -64 -84 -67
-102 -1 -7 -8 -23 -14 -35 -7 -13 -10 -23 -6 -23 3 0 2 -6 -4 -13 -6 -7 -16
-45 -23 -84 -29 -179 42 -319 159 -311 35 2 47 8 60 30 13 22 14 31 3 55 l-13
27 -16 -21 c-16 -20 -32 -27 -58 -24 -6 0 -19 26 -29 56 -21 68 -18 178 8 255
10 30 20 60 21 65 5 19 20 50 25 55 3 3 19 24 34 47 16 23 58 70 94 104 l66
63 39 -109 c21 -61 41 -117 45 -125 3 -8 7 -19 9 -25 1 -5 8 -23 15 -40 6 -16
13 -35 14 -41 6 -28 88 -204 95 -204 4 0 11 -11 14 -25 8 -32 93 -121 129
-134 49 -19 115 -14 127 9 9 16 3 28 -39 74 -40 44 -116 176 -128 221 -1 6
-40 120 -86 255 -46 135 -82 251 -80 258 3 6 10 12 18 12 19 0 197 190 220
235 11 22 24 43 28 46 17 12 67 175 67 217 l0 43 -47 -3 -48 -3 -6 -51 c-4
-28 -12 -69 -19 -90 -15 -48 -70 -153 -90 -175 -8 -8 -39 -41 -68 -72 -72 -77
-96 -88 -100 -47 0 5 -32 87 -56 145 -8 19 -15 38 -15 40 -1 14 -97 195 -118
223 l-24 32 -98 0 -99 0 34 -37z"/>
<path d="M5882 3703 c-4 -10 -7 -57 -7 -105 0 -72 4 -91 21 -115 21 -28 108
-82 118 -72 3 3 -2 27 -10 54 -18 60 -13 121 15 195 11 30 21 56 21 58 0 1
-34 2 -75 2 -63 0 -77 -3 -83 -17z"/>
<path d="M6419 3678 c-17 -24 -36 -54 -42 -68 -7 -14 -17 -31 -24 -38 -7 -7
-13 -19 -13 -27 0 -7 -4 -15 -9 -17 -12 -4 -152 -258 -143 -258 4 0 2 -4 -3
-8 -13 -9 -145 -247 -145 -262 0 -5 -4 -10 -9 -10 -5 0 -13 -10 -17 -22 -4
-13 -10 -25 -13 -28 -4 -3 -26 -34 -51 -70 -108 -161 -178 -223 -251 -222 -49
1 -89 38 -122 110 -26 60 -35 193 -16 271 7 31 13 59 13 63 1 4 18 27 39 52
46 55 93 72 143 51 61 -25 91 -109 64 -181 -14 -37 -7 -40 35 -14 31 19 59 52
60 72 0 3 3 10 8 14 11 11 9 62 -3 69 -6 4 -8 10 -5 15 3 5 -12 27 -33 48 -73
73 -172 79 -277 17 -143 -83 -201 -283 -140 -485 1 -3 5 -17 9 -32 5 -16 12
-28 17 -28 5 0 9 -7 9 -15 0 -24 62 -87 105 -106 49 -23 142 -25 190 -5 76 32
182 162 262 324 21 42 41 79 46 80 4 2 5 8 1 13 -3 5 0 9 6 9 6 0 8 5 5 10 -9
15 33 12 69 -5 l33 -16 -19 -97 c-21 -102 -20 -200 2 -257 6 -16 11 -31 11
-33 -3 -8 35 -69 63 -100 32 -36 33 -41 39 -142 3 -58 12 -123 20 -145 13 -38
16 -40 62 -43 l48 -3 -8 28 c-4 15 -9 84 -12 153 -4 107 -1 143 21 250 14 69
32 145 39 170 l14 45 0 -51 c1 -62 25 -112 59 -120 14 -4 48 -4 75 -2 84 8
138 76 164 205 4 22 13 33 30 37 13 3 30 8 38 12 12 4 10 -12 -8 -89 -68 -282
-78 -465 -34 -604 10 -31 13 -33 60 -33 27 0 49 2 49 4 0 2 -7 22 -15 45 -11
31 -13 73 -10 169 3 70 6 136 8 147 16 85 23 116 44 195 17 60 18 62 21 30 1
-19 4 -39 6 -45 2 -5 4 -14 5 -20 1 -5 12 -20 23 -32 45 -48 177 -22 212 42 6
10 17 25 24 33 7 7 10 17 7 22 -3 5 -1 11 5 15 5 3 12 27 16 54 6 46 7 48 52
61 57 17 134 90 152 144 10 32 10 40 -1 47 -23 14 -34 10 -52 -18 -46 -75
-129 -132 -147 -103 -5 8 -7 17 -5 21 3 3 -2 27 -11 53 -29 84 -102 118 -173
81 l-29 -14 -6 40 c-8 51 -59 107 -105 116 -33 6 -34 5 -26 -18 12 -36 11 -97
-4 -168 -13 -55 -19 -67 -54 -92 -50 -36 -65 -36 -73 -1 -3 15 -7 33 -10 40
-2 7 -3 14 -4 17 0 17 -34 67 -55 81 -32 21 -107 14 -135 -11 -20 -18 -20 -17
-20 19 0 63 -54 136 -101 136 -20 0 -19 5 5 83 8 26 16 51 16 55 0 4 8 30 16
58 8 28 16 60 19 70 2 11 11 39 19 63 16 45 21 97 10 125 -4 12 -20 16 -55 16
-46 0 -51 -3 -80 -42z m-119 -407 c-28 -90 -50 -169 -50 -177 0 -11 -10 -13
-42 -8 -24 4 -44 7 -45 8 0 1 40 78 90 173 50 95 92 171 94 170 1 -2 -20 -76
-47 -166z m147 -128 c-7 -65 -105 -475 -106 -441 -3 55 93 508 106 508 3 0 3
-30 0 -67z m681 -143 c31 -46 29 -70 -5 -70 -34 0 -91 -33 -100 -58 -8 -19
-28 -42 -39 -42 -3 0 -2 6 3 13 11 14 38 98 35 110 -1 4 3 7 10 7 6 0 9 3 5 6
-3 3 5 18 19 32 13 15 24 31 24 35 0 17 26 0 48 -33z m-478 -10 c27 -53 26
-60 -15 -60 -40 0 -99 -46 -122 -95 l-14 -30 6 28 c9 42 42 128 65 165 27 44
54 42 80 -8z m23 -157 c-10 -75 -25 -116 -50 -140 l-25 -26 -21 22 c-55 54 4
180 85 181 14 0 16 -7 11 -37z m487 9 c0 -48 -28 -127 -54 -151 l-24 -23 -22
22 c-43 43 -10 144 55 170 35 15 45 11 45 -18z"/>
<path d="M8169 3692 c-15 -15 -39 -46 -54 -69 -15 -24 -30 -43 -33 -43 -2 0
-19 13 -38 29 -61 54 -131 82 -199 80 -67 -2 -98 -15 -150 -61 -81 -71 -113
-201 -65 -268 17 -24 91 -70 113 -70 3 0 -1 16 -9 36 -20 47 -16 140 8 180 51
87 123 112 210 72 29 -14 63 -34 76 -44 l23 -19 -20 -47 c-26 -61 -70 -200
-75 -241 -3 -18 -10 -59 -15 -92 -16 -92 -14 -310 4 -380 43 -166 141 -265
262 -265 82 0 194 75 265 178 l30 44 18 -27 c39 -60 108 -81 166 -50 44 22
123 118 125 150 0 2 6 19 13 37 7 18 15 40 18 48 4 10 18 15 44 14 l39 -1 6
-69 c7 -79 14 -100 42 -131 23 -26 92 -32 129 -12 16 9 23 7 35 -10 17 -26 93
-30 117 -6 8 8 19 15 25 15 5 0 25 18 43 40 l34 39 13 -34 c15 -42 51 -71 103
-86 81 -21 159 34 251 176 92 144 145 292 100 283 -11 -2 -40 -50 -78 -124
-82 -166 -118 -213 -196 -254 -48 -25 -59 -13 -59 65 0 57 2 63 27 74 86 39
143 121 143 204 0 64 -24 87 -88 87 -54 0 -109 -30 -151 -82 -33 -41 -70 -136
-71 -179 0 -24 -10 -49 -29 -75 -29 -40 -81 -92 -81 -82 0 4 13 62 30 130 16
68 32 134 34 148 3 14 14 66 25 115 27 125 44 289 36 349 -9 66 -38 131 -64
146 -12 6 -40 10 -63 8 -44 -3 -74 -31 -83 -76 -2 -12 -7 -27 -10 -32 -4 -6
-6 -51 -6 -100 0 -95 19 -182 52 -236 24 -40 24 -47 -2 -34 -45 25 -173 -31
-186 -81 -3 -10 -9 -19 -13 -19 -5 0 -12 -10 -16 -22 -13 -42 -76 -80 -103
-63 -16 9 -13 47 5 91 33 77 30 148 -6 159 -26 8 -56 -9 -73 -42 -12 -23 -21
-26 -70 -28 -70 -4 -132 -37 -171 -94 -30 -43 -66 -147 -66 -190 0 -57 -122
-201 -203 -240 -65 -31 -94 -28 -137 18 -20 21 -37 45 -38 52 0 8 -6 57 -12
109 -7 55 -9 131 -5 179 6 75 10 109 29 211 6 32 58 179 72 204 10 17 14 16
60 -17 83 -59 139 -79 214 -75 86 5 118 28 162 116 30 61 33 75 33 157 0 50
-4 99 -9 110 -5 11 -10 25 -10 30 -1 6 -85 11 -226 12 l-225 2 -26 -27z m386
-25 c77 -77 44 -260 -56 -309 -33 -17 -40 -17 -95 -3 -61 16 -164 77 -164 96
0 20 88 136 135 177 49 43 100 71 129 72 10 0 33 -15 51 -33z m701 -144 c8
-31 -13 -250 -26 -273 -13 -23 -32 64 -32 149 -1 111 40 196 58 124z m354
-473 c0 -30 -23 -70 -59 -104 -17 -17 -31 -27 -31 -24 0 28 65 148 80 148 6 0
10 -9 10 -20z m-835 -47 c16 -128 3 -181 -64 -252 -59 -63 -91 -16 -66 100 18
88 52 165 83 189 13 11 28 20 32 20 4 0 11 -26 15 -57z m409 41 c9 -23 -41
-222 -67 -268 -29 -53 -44 -56 -53 -11 -9 47 0 109 26 176 38 103 78 146 94
103z"/>
<path d="M5025 3215 c-55 -19 -105 -75 -105 -117 0 -18 -11 -56 -24 -85 -13
-28 -22 -54 -18 -57 3 -3 0 -6 -7 -6 -7 0 -9 -4 -6 -10 3 -5 3 -10 -2 -10 -4
0 -20 -24 -36 -53 -27 -53 -115 -162 -124 -153 -2 2 7 48 21 103 15 54 28 107
31 118 2 11 9 35 14 54 7 21 7 40 1 51 -5 10 -6 20 -3 24 3 3 1 6 -5 6 -7 0
-12 6 -12 13 0 22 -35 47 -66 48 -117 3 -126 1 -167 -27 -22 -16 -45 -38 -51
-49 -6 -11 -14 -22 -18 -26 -4 -3 -19 -34 -34 -69 -41 -103 -160 -257 -181
-236 -4 3 1 35 10 69 10 34 19 67 21 72 1 6 10 26 20 45 10 19 21 62 24 96 4
59 3 64 -23 88 -47 43 -119 28 -166 -36 l-17 -23 -7 28 c-18 70 -104 77 -172
14 -17 -15 -23 -17 -24 -6 -3 59 -32 89 -86 89 -21 0 -49 -6 -62 -13 -28 -14
-37 -50 -17 -66 13 -11 11 -40 -5 -106 -1 -3 -3 -9 -4 -15 -1 -5 -4 -12 -5
-15 -1 -3 -3 -8 -5 -12 -1 -5 -7 -21 -14 -38 -7 -16 -14 -34 -15 -40 -2 -5 -9
-23 -16 -40 -7 -16 -15 -56 -18 -87 -4 -51 -2 -59 21 -82 29 -29 81 -35 112
-12 15 10 20 28 21 72 3 68 4 75 28 129 10 22 19 45 20 52 3 18 88 133 98 133
5 0 6 -10 3 -23 -4 -13 -7 -30 -9 -38 -1 -8 -14 -50 -28 -94 -14 -44 -29 -101
-33 -127 -6 -42 -4 -50 18 -72 28 -28 95 -37 101 -13 2 6 10 50 19 96 19 100
53 173 107 232 l40 44 -4 -30 c-2 -16 -11 -49 -20 -72 -8 -24 -13 -43 -9 -43
3 0 1 -6 -5 -12 -5 -7 -13 -26 -16 -43 -3 -16 -10 -48 -15 -70 -21 -83 30
-145 107 -130 28 5 54 25 108 80 78 79 75 79 90 6 1 -7 13 -24 25 -37 18 -19
33 -24 70 -24 29 0 53 6 62 15 13 13 17 12 31 -10 25 -37 91 -35 140 4 42 34
106 110 106 128 0 6 4 13 10 15 5 2 25 32 45 68 l35 65 0 -70 c0 -68 -1 -71
-30 -88 -39 -23 -72 -94 -64 -137 7 -33 46 -70 74 -70 27 0 83 26 101 47 29
32 39 61 46 123 6 60 7 61 68 111 62 50 105 99 105 119 0 5 5 10 12 10 6 0 8
3 5 7 -4 3 -2 12 4 19 15 18 1 54 -21 54 -12 0 -22 -12 -31 -37 -12 -36 -79
-112 -118 -132 -16 -9 -19 -5 -25 42 -3 29 -6 72 -6 97 0 45 28 121 49 134 15
10 14 22 -5 40 -18 19 -18 19 -69 1z m-381 -171 c7 -18 -36 -200 -61 -257 -37
-86 -67 -70 -60 33 9 134 95 293 121 224z m273 -359 c-4 -8 -11 -15 -17 -15
-7 0 -7 6 0 21 13 23 26 19 17 -6z"/>
</g>
</svg>
