<?xml version="1.0" standalone="no"?>
<!DOCTYPE svg PUBLIC "-//W3C//DTD SVG 20010904//EN"
 "http://www.w3.org/TR/2001/REC-SVG-20010904/DTD/svg10.dtd">
<svg version="1.0" xmlns="http://www.w3.org/2000/svg"
 width="256.000000pt" height="256.000000pt" viewBox="0 0 256.000000 256.000000"
 preserveAspectRatio="xMidYMid meet">

<g transform="translate(0.000000,256.000000) scale(0.100000,-0.100000)"
fill="#000000" stroke="none">
<path d="M376 2223 c-25 -79 -50 -117 -103 -158 -46 -35 -46 -35 -17 -35 l29
0 -24 -19 c-15 -11 -19 -20 -12 -22 7 -3 -6 -16 -27 -29 l-40 -25 51 -5 52 -5
-44 -32 c-43 -32 -43 -33 -16 -33 23 0 25 -2 15 -15 -6 -8 -33 -28 -58 -45
l-45 -30 116 0 117 0 0 -495 c0 -488 0 -495 20 -495 20 0 20 7 20 495 l0 495
95 0 95 0 0 -495 c0 -433 2 -495 15 -495 13 0 15 62 15 495 0 389 3 495 13
495 8 0 7 4 -3 10 -10 7 6 10 55 10 l70 0 -30 20 -30 20 45 0 45 0 -40 27
c-31 21 -36 28 -22 32 14 5 12 10 -15 26 l-33 20 33 3 33 3 -49 44 c-26 24
-57 62 -67 85 l-19 42 -22 -44 c-31 -62 -50 -76 -72 -55 -15 16 -14 17 12 17
27 0 27 1 -16 33 -54 42 -84 85 -106 159 l-18 58 -18 -57z"/>
<path d="M519 2158 c-12 -40 -1 -54 27 -33 18 14 18 14 -4 15 -13 0 -20 4 -17
10 3 6 4 10 1 10 -3 0 -6 -1 -7 -2z"/>
<path d="M1805 2139 c-4 -6 -5 -12 -2 -15 2 -3 7 2 10 11 7 17 1 20 -8 4z"/>
<path d="M790 2120 c0 -5 5 -10 10 -10 6 0 10 5 10 10 0 6 -4 10 -10 10 -5 0
-10 -4 -10 -10z"/>
<path d="M2042 2105 c-6 -14 -16 -25 -22 -25 -5 0 -9 -5 -7 -11 1 -6 -3 -13
-10 -16 -6 -2 -17 13 -23 33 l-13 37 -13 -38 c-7 -21 -27 -52 -44 -70 -19 -19
-27 -34 -20 -37 7 -2 1 -14 -16 -31 l-27 -27 29 0 29 0 -24 -19 c-16 -12 -20
-20 -11 -23 9 -3 8 -7 -3 -17 -13 -10 -19 -9 -35 7 -11 11 -22 26 -25 33 -4
11 -8 10 -18 -4 -13 -16 -16 -14 -42 25 -15 23 -27 35 -27 26 0 -10 -11 -29
-25 -44 -13 -14 -22 -30 -19 -35 3 -5 -1 -9 -8 -9 -10 0 -10 -2 0 -9 18 -11
17 -20 -5 -37 -16 -12 -15 -13 15 -14 l32 0 0 -510 c0 -447 2 -510 15 -510 13
0 15 62 15 495 0 433 2 495 15 495 13 0 15 -62 15 -495 l0 -495 25 0 25 0 0
495 0 495 30 0 30 0 -21 21 c-26 26 -13 39 39 39 l32 0 0 -525 0 -525 35 0 35
0 0 525 0 525 25 0 25 0 0 -525 c0 -343 3 -525 10 -525 7 0 10 177 10 510 l0
510 30 0 30 0 0 -510 c0 -333 3 -510 10 -510 7 0 10 177 10 510 l0 510 40 0
40 0 0 -510 c0 -447 2 -510 15 -510 13 0 15 63 15 510 l0 510 25 0 25 0 0
-510 c0 -503 0 -510 20 -510 20 0 20 7 20 510 l0 510 53 0 52 0 -35 22 c-28
17 -31 23 -17 26 15 3 14 6 -8 24 -32 25 -32 38 2 38 26 0 26 1 7 15 -18 14
-18 14 10 15 l29 0 -27 21 c-15 12 -25 23 -22 26 2 3 -11 25 -30 50 -19 24
-34 52 -34 61 0 9 -9 -1 -19 -23 -24 -54 -46 -72 -59 -49 -9 16 -10 15 -16 -4
-4 -12 -19 -31 -33 -42 -22 -17 -23 -20 -7 -20 18 -1 18 -1 1 -14 -13 -10 -14
-15 -6 -18 9 -3 10 -6 2 -11 -6 -4 -28 20 -51 56 -28 43 -37 64 -29 69 9 6 8
8 -2 8 -7 0 -11 6 -7 15 3 8 1 15 -5 15 -5 0 -15 11 -21 25 -6 14 -14 25 -18
25 -4 0 -12 -11 -18 -25z m88 -129 c0 -18 -50 -79 -58 -71 -4 3 0 10 8 15 10
7 11 10 3 10 -8 0 -13 13 -13 30 0 27 3 30 30 30 19 0 30 -5 30 -14z m-35 -96
c-3 -5 -11 -10 -16 -10 -6 0 -7 5 -4 10 3 6 11 10 16 10 6 0 7 -4 4 -10z m135
-39 c0 -25 -18 -37 -33 -22 -8 8 -6 11 8 11 18 0 18 0 -1 15 -19 14 -18 14 4
15 15 0 22 -6 22 -19z m-140 -15 c0 -3 -4 -8 -10 -11 -5 -3 -10 -1 -10 4 0 6
5 11 10 11 6 0 10 -2 10 -4z"/>
<path d="M1140 2102 c0 -5 -11 -15 -25 -22 -30 -16 -33 -30 -5 -23 14 4 20 0
20 -11 0 -9 4 -16 9 -16 5 0 7 9 4 20 -4 14 0 20 11 20 9 0 16 4 16 10 0 5 -7
7 -15 4 -11 -5 -13 -2 -9 10 3 9 3 16 0 16 -3 0 -6 -4 -6 -8z"/>
<path d="M1420 2095 c0 -8 2 -15 4 -15 2 0 6 7 10 15 3 8 1 15 -4 15 -6 0 -10
-7 -10 -15z"/>
<path d="M1645 2100 c-3 -5 -1 -10 4 -10 6 0 11 5 11 10 0 6 -2 10 -4 10 -3 0
-8 -4 -11 -10z"/>
<path d="M1090 2090 c0 -5 5 -10 11 -10 5 0 7 5 4 10 -3 6 -8 10 -11 10 -2 0
-4 -4 -4 -10z"/>
<path d="M2220 2082 c0 -5 7 -9 15 -9 8 0 12 4 9 9 -3 4 -9 8 -15 8 -5 0 -9
-4 -9 -8z"/>
<path d="M1155 2050 c3 -5 8 -10 11 -10 2 0 4 5 4 10 0 6 -5 10 -11 10 -5 0
-7 -4 -4 -10z"/>
<path d="M1105 2040 c-3 -5 -1 -10 4 -10 6 0 11 5 11 10 0 6 -2 10 -4 10 -3 0
-8 -4 -11 -10z"/>
<path d="M740 2030 c0 -5 5 -10 11 -10 5 0 7 5 4 10 -3 6 -8 10 -11 10 -2 0
-4 -4 -4 -10z"/>
<path d="M1560 2000 c-13 -13 -13 -17 0 -30 13 -13 17 -13 30 0 13 13 13 17 0
30 -13 13 -17 13 -30 0z"/>
<path d="M1778 2013 c6 -2 18 -2 25 0 6 3 1 5 -13 5 -14 0 -19 -2 -12 -5z"/>
<path d="M1026 1987 c-3 -14 -21 -42 -40 -61 -30 -33 -31 -36 -12 -36 21 -1
21 -1 -3 -20 -14 -12 -18 -20 -10 -20 9 -1 5 -8 -10 -20 l-23 -20 22 0 c19 0
20 -2 10 -15 -11 -13 -7 -15 29 -15 l41 0 0 -500 c0 -327 3 -500 10 -500 7 0
10 173 10 500 l0 500 36 0 c31 0 35 2 24 15 -10 13 -9 15 11 15 l24 1 -24 19
c-13 11 -18 20 -11 20 9 0 7 7 -5 20 -17 19 -17 20 0 20 15 0 13 5 -10 27 -15
15 -35 43 -44 62 l-18 34 -7 -26z"/>
<path d="M1430 1923 c0 -5 5 -15 10 -23 8 -12 10 -11 10 8 0 12 -4 22 -10 22
-5 0 -10 -3 -10 -7z"/>
<path d="M1473 1905 c0 -11 4 -12 14 -4 7 6 13 13 13 15 0 2 -6 4 -13 4 -8 0
-14 -7 -14 -15z"/>
<path d="M1400 1891 c0 -5 9 -11 21 -14 16 -4 18 -3 8 9 -13 16 -29 19 -29 5z"/>
<path d="M1236 1882 c-2 -4 4 -9 15 -9 10 -1 19 2 19 8 0 11 -27 12 -34 1z"/>
<path d="M1495 1879 c-4 -6 -14 -8 -22 -5 -8 3 -26 -2 -41 -12 -14 -9 -27 -15
-28 -12 -1 3 -6 1 -11 -4 -4 -5 4 -6 20 -2 26 6 38 -6 17 -19 -12 -8 -13 -25
-1 -25 5 0 12 12 16 28 7 25 8 25 15 7 4 -11 6 -23 4 -27 -3 -4 0 -9 6 -13 6
-4 9 6 8 27 -2 26 2 35 20 43 12 5 22 13 22 17 0 12 -18 10 -25 -3z"/>
<path d="M1490 1835 c7 -8 17 -12 22 -9 6 4 5 10 -3 15 -22 14 -33 10 -19 -6z"/>
<path d="M200 1265 l0 -485 25 0 25 0 0 485 0 485 -25 0 -25 0 0 -485z"/>
<path d="M270 1265 l0 -485 40 0 40 0 0 485 0 485 -40 0 -40 0 0 -485z"/>
<path d="M450 1265 l0 -485 35 0 35 0 0 485 0 485 -35 0 -35 0 0 -485z"/>
<path d="M650 1265 l0 -485 25 0 25 0 0 485 0 485 -25 0 -25 0 0 -485z"/>
<path d="M730 1265 c0 -317 3 -485 10 -485 7 0 10 168 10 485 0 317 -3 485
-10 485 -7 0 -10 -168 -10 -485z"/>
<path d="M800 1265 l0 -485 35 0 35 0 0 485 0 485 -35 0 -35 0 0 -485z"/>
<path d="M910 1265 l0 -485 30 0 30 0 0 485 0 485 -30 0 -30 0 0 -485z"/>
<path d="M1070 1265 l0 -485 40 0 40 0 0 485 0 485 -40 0 -40 0 0 -485z"/>
<path d="M1180 1265 l0 -485 25 0 25 0 0 485 0 485 -25 0 -25 0 0 -485z"/>
<path d="M1250 1265 c0 -317 3 -485 10 -485 7 0 10 168 10 485 0 317 -3 485
-10 485 -7 0 -10 -168 -10 -485z"/>
<path d="M1300 1265 c0 -317 3 -485 10 -485 7 0 10 168 10 485 0 317 -3 485
-10 485 -7 0 -10 -168 -10 -485z"/>
<path d="M1350 1265 c0 -317 3 -485 10 -485 7 0 10 168 10 485 0 317 -3 485
-10 485 -7 0 -10 -168 -10 -485z"/>
<path d="M1430 1265 l0 -485 35 0 35 0 0 485 0 485 -35 0 -35 0 0 -485z"/>
<path d="M1530 1265 c0 -317 3 -485 10 -485 7 0 10 168 10 485 0 317 -3 485
-10 485 -7 0 -10 -168 -10 -485z"/>
<path d="M1600 1265 c0 -424 2 -485 15 -485 13 0 15 61 15 485 0 424 -2 485
-15 485 -13 0 -15 -61 -15 -485z"/>
<path d="M1660 1265 c0 -317 3 -485 10 -485 7 0 10 168 10 485 0 317 -3 485
-10 485 -7 0 -10 -168 -10 -485z"/>
<path d="M1880 1265 c0 -317 3 -485 10 -485 7 0 10 168 10 485 0 317 -3 485
-10 485 -7 0 -10 -168 -10 -485z"/>
<path d="M2400 1085 c0 -437 3 -665 10 -665 7 0 10 228 10 665 0 437 -3 665
-10 665 -7 0 -10 -228 -10 -665z"/>
<path d="M2450 1085 c0 -437 3 -665 10 -665 7 0 10 228 10 665 0 437 -3 665
-10 665 -7 0 -10 -228 -10 -665z"/>
<path d="M150 1080 c0 -580 2 -660 15 -660 13 0 15 79 15 654 0 572 -2 655
-15 660 -13 5 -15 -72 -15 -654z"/>
<path d="M115 1075 c0 -363 1 -510 2 -327 2 184 2 481 0 660 -1 180 -2 30 -2
-333z"/>
<path d="M486 679 c8 -17 22 -50 30 -72 13 -38 13 -43 -1 -54 -9 -6 -28 -26
-41 -44 -38 -52 -30 -139 13 -139 7 0 13 4 13 10 0 5 -6 9 -12 7 -9 -1 -14 14
-16 45 -3 40 1 51 29 83 l32 37 22 -61 c25 -69 50 -110 71 -118 25 -9 25 2 0
48 -13 24 -31 68 -41 97 l-17 54 30 31 c33 36 52 68 52 91 0 27 -17 18 -23
-13 -3 -15 -18 -43 -33 -61 l-27 -32 -28 61 c-21 46 -33 61 -49 61 -20 0 -20
-1 -4 -31z"/>
<path d="M1176 694 c-5 -14 11 -61 18 -52 2 1 6 18 9 36 5 23 3 32 -7 32 -8 0
-17 -7 -20 -16z"/>
<path d="M1249 593 c-36 -65 -78 -127 -93 -138 l-28 -20 -19 24 c-25 31 -25
85 1 111 24 24 50 16 50 -17 0 -13 4 -21 10 -18 16 10 12 52 -6 59 -28 11 -44
6 -69 -19 -48 -48 -23 -155 36 -155 25 0 71 47 89 90 18 44 35 32 35 -27 0
-27 5 -56 11 -64 7 -8 15 -33 19 -56 10 -61 25 -53 26 15 1 31 4 68 8 82 7 25
7 25 13 3 3 -13 13 -23 21 -23 19 0 47 27 47 45 0 7 6 15 14 18 12 5 12 0 5
-26 -12 -43 -12 -157 1 -157 6 0 10 24 11 53 1 28 4 63 8 77 6 21 8 22 14 8
11 -30 47 -22 60 12 6 17 15 30 18 30 12 0 39 30 39 43 0 7 -5 4 -11 -5 -13
-24 -35 -23 -42 2 -3 12 -14 20 -26 20 -12 0 -24 7 -27 15 -9 21 -24 19 -24
-4 0 -48 -32 -71 -45 -31 -4 11 -15 20 -26 20 -11 0 -22 7 -25 15 -11 29 -20
15 -34 -52 -8 -38 -16 -60 -18 -51 -2 9 8 60 22 113 14 53 26 103 26 111 0 38
-31 3 -91 -103z m33 7 c-9 -27 -22 -50 -29 -50 -9 0 -6 15 12 50 14 28 27 50
29 50 2 0 -3 -22 -12 -50z m88 -73 c0 -7 -9 -18 -20 -25 -22 -14 -25 -9 -10
19 12 21 30 26 30 6z m120 0 c0 -7 -9 -18 -20 -25 -22 -14 -25 -9 -10 19 12
21 30 26 30 6z m-110 -35 c0 -5 -6 -16 -13 -27 -16 -20 -31 -7 -21 19 6 16 34
23 34 8z m114 -14 c-9 -30 -12 -34 -24 -22 -14 14 -2 44 17 44 10 0 12 -6 7
-22z"/>
<path d="M1636 689 c-28 -22 -33 -68 -8 -77 7 -2 10 2 6 11 -9 24 14 57 39 57
42 0 48 -11 31 -65 -20 -64 -14 -157 11 -185 25 -27 61 -25 91 5 21 21 27 23
45 12 17 -10 23 -9 40 12 10 13 19 29 19 37 0 24 25 11 30 -16 3 -14 12 -26
21 -28 12 -2 14 5 11 30 -2 19 3 41 12 53 15 20 15 20 16 -2 0 -12 -4 -33 -9
-47 -13 -34 7 -51 36 -31 18 13 22 13 27 0 10 -28 45 -16 76 27 16 22 30 48
29 57 0 9 -10 -3 -21 -26 -22 -43 -45 -60 -60 -45 -5 5 3 21 17 36 14 15 25
33 25 41 0 43 -64 14 -75 -34 -3 -16 -12 -35 -20 -41 -11 -9 -11 -2 0 47 17
69 19 159 5 168 -6 4 -18 1 -26 -6 -16 -13 -16 -65 0 -102 6 -13 5 -16 -7 -11
-10 3 -24 -4 -38 -20 -30 -35 -42 -33 -34 5 7 29 6 31 -16 24 -44 -13 -70 -36
-76 -65 -11 -59 -81 -105 -97 -64 -10 26 -7 119 5 153 9 24 15 30 28 25 40
-17 74 -17 88 2 19 26 17 84 -2 84 -12 0 -13 -4 -5 -19 15 -30 -4 -71 -33 -71
-13 0 -32 6 -42 14 -18 13 -18 15 12 45 l31 31 -30 0 c-18 0 -39 -7 -49 -16
-16 -15 -20 -15 -41 0 -29 20 -30 20 -62 -5z m384 -60 c0 -24 -4 -38 -10 -34
-17 10 -11 75 7 75 2 0 3 -18 3 -41z m-118 -129 c-8 -22 -23 -40 -34 -40 -13
0 -2 58 14 78 10 12 13 11 19 -5 3 -10 4 -25 1 -33z m194 22 c-18 -16 -18 -16
-6 6 6 13 14 21 18 18 3 -4 -2 -14 -12 -24z"/>
<path d="M953 578 c-5 -7 -15 -26 -22 -43 -6 -16 -21 -41 -32 -55 l-21 -25 7
30 c3 17 8 38 11 47 4 12 -3 22 -20 30 -22 9 -29 8 -46 -7 -11 -10 -20 -24
-20 -31 0 -7 -12 -26 -26 -41 l-26 -28 6 25 c21 87 24 80 -33 77 -28 -2 -51 0
-51 5 0 4 -8 8 -18 8 -13 0 -21 -14 -30 -55 -7 -30 -10 -60 -7 -65 9 -15 25
-12 25 5 0 20 32 85 42 85 4 0 3 -12 -2 -26 -14 -37 -12 -64 5 -64 9 0 15 9
15 24 0 13 9 34 21 47 l20 24 -7 -25 c-20 -67 -2 -98 35 -61 25 25 31 26 31 7
0 -18 60 -27 79 -12 8 6 22 25 33 41 16 27 18 28 18 8 0 -12 -4 -25 -10 -28
-5 -3 -10 -15 -10 -26 0 -31 30 -22 45 14 7 18 23 41 34 51 12 11 21 24 21 30
0 6 -12 -2 -26 -19 l-25 -30 4 48 c5 47 -2 58 -20 35z m-88 -60 c-8 -36 -21
-55 -31 -46 -9 9 16 78 28 78 6 0 7 -13 3 -32z"/>
</g>
</svg>
